%
M48
M72
T01C0.0120
T02C0.0394
T03C0.1102
%
T01
X2129Y12758
X4097Y12758
X9215Y12758
X11577Y12758
X14333Y12758
X14333Y10396
X14333Y8034
X14333Y5278
X11971Y4491
X7640Y4491
X5278Y4491
X3310Y4491
X1735Y4491
X1735Y6853
X1735Y8821
X2129Y10790
X2916Y7640
X4884Y8034
X7247Y9609
X8428Y9609
X8821Y7640
X9609Y10790
X10790Y10790
X10790Y7640
X12365Y8034
X12758Y10396
X4884Y11577
X7739Y10101
X6951Y7148
X4688Y6361
X6459Y10888
X6459Y9806
X7443Y10593
X4688Y10298
X4688Y8723
X7148Y7640
X5672Y7739
T02
X11495Y9751
X11495Y8766
X10707Y8766
X10707Y9751
X8062Y5629
X7062Y5629
X6062Y5629
X4562Y5629
X3562Y5629
X2562Y5629
X9609Y5593
X10609Y5593
T03
X12562Y11629
X12562Y6888
M30
