G75*
G70*
%OFA0B0*%
%FSLAX24Y24*%
%IPPOS*%
%LPD*%
%AMOC8*
5,1,8,0,0,1.08239X$1,22.5*
%
%ADD10C,0.0000*%
%ADD11R,0.0157X0.0591*%
%ADD12C,0.1502*%
%ADD13C,0.0594*%
%ADD14R,0.0512X0.0591*%
%ADD15R,0.0594X0.0594*%
%ADD16R,0.0472X0.0472*%
%ADD17C,0.0120*%
%ADD18C,0.0240*%
%ADD19C,0.0240*%
D10*
X001046Y003014D02*
X001046Y014530D01*
X015219Y014530D01*
X015219Y003014D01*
X001046Y003014D01*
D11*
X005398Y008701D03*
X005654Y008701D03*
X005910Y008701D03*
X006166Y008701D03*
X006422Y008701D03*
X006678Y008701D03*
X006934Y008701D03*
X007190Y008701D03*
X007445Y008701D03*
X007701Y008701D03*
X007957Y008701D03*
X008213Y008701D03*
X008469Y008701D03*
X008725Y008701D03*
X008725Y011556D03*
X008469Y011556D03*
X008213Y011556D03*
X007957Y011556D03*
X007701Y011556D03*
X007445Y011556D03*
X007190Y011556D03*
X006934Y011556D03*
X006678Y011556D03*
X006422Y011556D03*
X006166Y011556D03*
X005910Y011556D03*
X005654Y011556D03*
X005398Y011556D03*
D12*
X012562Y011629D03*
X012562Y006888D03*
D13*
X011495Y008766D03*
X010707Y008766D03*
X010707Y009751D03*
X011495Y009751D03*
X010609Y005593D03*
X009609Y005593D03*
X007062Y005629D03*
X006062Y005629D03*
X003562Y005629D03*
X002562Y005629D03*
D14*
X003188Y009629D03*
X003936Y009629D03*
X003936Y011629D03*
X003188Y011629D03*
X005188Y012629D03*
X005936Y012629D03*
X007188Y012629D03*
X007936Y012629D03*
D15*
X008062Y005629D03*
X004562Y005629D03*
D16*
X003975Y008629D03*
X003148Y008629D03*
X003148Y010629D03*
X003975Y010629D03*
D17*
X003579Y010661D02*
X003544Y010661D01*
X003544Y010779D02*
X003579Y010779D01*
X003579Y010898D02*
X003544Y010898D01*
X003544Y010931D02*
X003451Y011025D01*
X003368Y011025D01*
X003368Y011173D01*
X003510Y011173D01*
X003562Y011225D01*
X003613Y011173D01*
X004258Y011173D01*
X004322Y011238D01*
X004982Y010578D01*
X004804Y010578D01*
X004515Y010866D01*
X004413Y010909D01*
X004371Y010909D01*
X004371Y010931D01*
X004277Y011025D01*
X003672Y011025D01*
X003579Y010931D01*
X003579Y010326D01*
X003672Y010232D01*
X004277Y010232D01*
X004317Y010272D01*
X004450Y010139D01*
X004529Y010060D01*
X004613Y010026D01*
X004316Y010026D01*
X004258Y010084D01*
X003613Y010084D01*
X003562Y010032D01*
X003510Y010084D01*
X002865Y010084D01*
X002772Y009990D01*
X002772Y009267D01*
X002865Y009173D01*
X002928Y009173D01*
X002928Y009025D01*
X002846Y009025D01*
X002752Y008931D01*
X002752Y008326D01*
X002846Y008232D01*
X003451Y008232D01*
X003544Y008326D01*
X003544Y008931D01*
X003451Y009025D01*
X003368Y009025D01*
X003368Y009173D01*
X003510Y009173D01*
X003562Y009225D01*
X003613Y009173D01*
X004258Y009173D01*
X004351Y009267D01*
X004351Y009586D01*
X006283Y009586D01*
X006301Y009568D01*
X006404Y009526D01*
X006515Y009526D01*
X006618Y009568D01*
X006697Y009647D01*
X006739Y009750D01*
X006739Y009861D01*
X006697Y009964D01*
X006643Y010018D01*
X007204Y010018D01*
X007307Y010060D01*
X007498Y010252D01*
X007459Y010157D01*
X007459Y010045D01*
X007501Y009942D01*
X007580Y009864D01*
X007683Y009821D01*
X007794Y009821D01*
X007897Y009864D01*
X007976Y009942D01*
X008019Y010045D01*
X008019Y010070D01*
X008249Y010300D01*
X008249Y010264D01*
X008378Y010135D01*
X009389Y009124D01*
X009518Y008995D01*
X010167Y008995D01*
X010266Y008896D01*
X010250Y008857D01*
X010250Y008675D01*
X010320Y008508D01*
X010448Y008379D01*
X010616Y008309D01*
X010798Y008309D01*
X010966Y008379D01*
X011095Y008508D01*
X011101Y008523D01*
X011107Y008508D01*
X011236Y008379D01*
X011404Y008309D01*
X011586Y008309D01*
X011753Y008379D01*
X011882Y008508D01*
X011951Y008675D01*
X011951Y008786D01*
X012456Y009290D01*
X012585Y009419D01*
X012585Y009995D01*
X011207Y011373D01*
X011078Y011502D01*
X009090Y011502D01*
X008964Y011628D01*
X008964Y011917D01*
X008870Y012011D01*
X008433Y012011D01*
X008433Y012442D01*
X008351Y012524D01*
X008351Y012990D01*
X008258Y013084D01*
X007613Y013084D01*
X007562Y013032D01*
X007542Y013052D01*
X007505Y013073D01*
X007465Y013084D01*
X007248Y013084D01*
X007248Y012689D01*
X007128Y012689D01*
X007128Y013084D01*
X006911Y013084D01*
X006870Y013073D01*
X006833Y013052D01*
X006804Y013022D01*
X006783Y012986D01*
X006772Y012945D01*
X006772Y012689D01*
X007128Y012689D01*
X007128Y012569D01*
X006772Y012569D01*
X006772Y012312D01*
X006778Y012289D01*
X006345Y012289D01*
X006351Y012312D01*
X006351Y012569D01*
X005996Y012569D01*
X005996Y012689D01*
X005876Y012689D01*
X005876Y013084D01*
X005659Y013084D01*
X005618Y013073D01*
X005581Y013052D01*
X005562Y013032D01*
X005510Y013084D01*
X004865Y013084D01*
X004772Y012990D01*
X004772Y012267D01*
X004865Y012173D01*
X005060Y012173D01*
X005089Y012145D01*
X005238Y011996D01*
X005159Y011917D01*
X005159Y011194D01*
X005253Y011100D01*
X005799Y011100D01*
X005801Y011103D01*
X005810Y011100D01*
X005910Y011100D01*
X005910Y011556D01*
X006149Y011556D01*
X006166Y011556D01*
X006166Y011556D01*
X005910Y011556D01*
X005910Y011556D01*
X005910Y011100D01*
X006010Y011100D01*
X006038Y011108D01*
X006066Y011100D01*
X006166Y011100D01*
X006266Y011100D01*
X006274Y011103D01*
X006276Y011101D01*
X006222Y011047D01*
X006179Y010944D01*
X006179Y010833D01*
X006187Y010813D01*
X005369Y010813D01*
X004514Y011668D01*
X004385Y011797D01*
X004351Y011797D01*
X004351Y011990D01*
X004258Y012084D01*
X003613Y012084D01*
X003562Y012032D01*
X003510Y012084D01*
X002865Y012084D01*
X002772Y011990D01*
X002772Y011267D01*
X002865Y011173D01*
X002928Y011173D01*
X002928Y011025D01*
X002846Y011025D01*
X002752Y010931D01*
X002752Y010326D01*
X002846Y010232D01*
X003451Y010232D01*
X003544Y010326D01*
X003544Y010931D01*
X003459Y011016D02*
X003664Y011016D01*
X003368Y011135D02*
X004426Y011135D01*
X004544Y011016D02*
X004286Y011016D01*
X004439Y010898D02*
X004663Y010898D01*
X004602Y010779D02*
X004781Y010779D01*
X004721Y010661D02*
X004900Y010661D01*
X005278Y010593D02*
X004294Y011577D01*
X003987Y011577D01*
X003936Y011629D01*
X004351Y011846D02*
X005159Y011846D01*
X005159Y011727D02*
X004455Y011727D01*
X004574Y011609D02*
X005159Y011609D01*
X005159Y011490D02*
X004692Y011490D01*
X004811Y011372D02*
X005159Y011372D01*
X005159Y011253D02*
X004929Y011253D01*
X005048Y011135D02*
X005219Y011135D01*
X005166Y011016D02*
X006209Y011016D01*
X006166Y011100D02*
X006166Y011556D01*
X006166Y011556D01*
X006166Y011100D01*
X006166Y011135D02*
X006166Y011135D01*
X006166Y011253D02*
X006166Y011253D01*
X006166Y011372D02*
X006166Y011372D01*
X006166Y011490D02*
X006166Y011490D01*
X005910Y011490D02*
X005910Y011490D01*
X005910Y011556D02*
X005910Y011556D01*
X005910Y011372D02*
X005910Y011372D01*
X005910Y011253D02*
X005910Y011253D01*
X005910Y011135D02*
X005910Y011135D01*
X006179Y010898D02*
X005285Y010898D01*
X005278Y010593D02*
X006656Y010593D01*
X006934Y010871D01*
X006934Y011556D01*
X006678Y011556D02*
X006678Y011107D01*
X006459Y010888D01*
X006952Y010578D02*
X007154Y010780D01*
X007154Y010962D01*
X007154Y011100D01*
X007190Y011100D01*
X007223Y011100D01*
X007223Y010769D01*
X007206Y010752D01*
X007206Y010752D01*
X007032Y010578D01*
X006952Y010578D01*
X007035Y010661D02*
X007115Y010661D01*
X007153Y010779D02*
X007223Y010779D01*
X007223Y010898D02*
X007154Y010898D01*
X007154Y011016D02*
X007223Y011016D01*
X007190Y011100D02*
X007190Y011556D01*
X007190Y011556D01*
X007190Y011100D01*
X007190Y011135D02*
X007190Y011135D01*
X007190Y011253D02*
X007190Y011253D01*
X007190Y011372D02*
X007190Y011372D01*
X007190Y011490D02*
X007190Y011490D01*
X007443Y011554D02*
X007445Y011556D01*
X007445Y011969D01*
X007345Y012069D01*
X005475Y012069D01*
X005180Y012365D01*
X005180Y012621D01*
X005188Y012629D01*
X004812Y013031D02*
X001206Y013031D01*
X001206Y013149D02*
X015059Y013149D01*
X015059Y013031D02*
X008311Y013031D01*
X008351Y012912D02*
X015059Y012912D01*
X015059Y012794D02*
X008351Y012794D01*
X008351Y012675D02*
X015059Y012675D01*
X015059Y012557D02*
X008351Y012557D01*
X008433Y012438D02*
X012141Y012438D01*
X012158Y012447D02*
X012054Y012388D01*
X011960Y012315D01*
X011875Y012231D01*
X011802Y012136D01*
X011743Y012032D01*
X011697Y011922D01*
X011666Y011807D01*
X011650Y011689D01*
X012502Y011689D01*
X012502Y012540D01*
X012383Y012524D01*
X012268Y012493D01*
X012158Y012447D01*
X011965Y012320D02*
X008433Y012320D01*
X008433Y012201D02*
X011852Y012201D01*
X011772Y012083D02*
X008433Y012083D01*
X008213Y012351D02*
X007936Y012629D01*
X008213Y012351D02*
X008213Y011556D01*
X008213Y010575D01*
X007739Y010101D01*
X007471Y010187D02*
X007433Y010187D01*
X007459Y010068D02*
X007314Y010068D01*
X007498Y009950D02*
X006703Y009950D01*
X006739Y009831D02*
X007659Y009831D01*
X007819Y009831D02*
X008682Y009831D01*
X008800Y009713D02*
X006724Y009713D01*
X006644Y009594D02*
X008919Y009594D01*
X009037Y009476D02*
X004351Y009476D01*
X004351Y009357D02*
X009156Y009357D01*
X009274Y009239D02*
X004323Y009239D01*
X004277Y009025D02*
X003672Y009025D01*
X003579Y008931D01*
X003579Y008326D01*
X003672Y008232D01*
X004277Y008232D01*
X004371Y008326D01*
X004371Y008503D01*
X004512Y008503D01*
X004529Y008486D01*
X004632Y008443D01*
X004743Y008443D01*
X004846Y008486D01*
X004925Y008564D01*
X004968Y008667D01*
X004968Y008779D01*
X004925Y008882D01*
X004846Y008960D01*
X004743Y009003D01*
X004632Y009003D01*
X004529Y008960D01*
X004512Y008943D01*
X004359Y008943D01*
X004277Y009025D01*
X004301Y009002D02*
X004628Y009002D01*
X004747Y009002D02*
X005159Y009002D01*
X005159Y009063D02*
X005159Y008340D01*
X005178Y008321D01*
X005178Y008147D01*
X004990Y007959D01*
X004793Y007959D01*
X003415Y006581D01*
X003286Y006452D01*
X003286Y005999D01*
X003174Y005887D01*
X003105Y005719D01*
X003105Y005538D01*
X003174Y005370D01*
X003303Y005241D01*
X003471Y005172D01*
X003652Y005172D01*
X003820Y005241D01*
X003949Y005370D01*
X004018Y005538D01*
X004018Y005719D01*
X003949Y005887D01*
X003820Y006016D01*
X003726Y006055D01*
X003726Y006270D01*
X004976Y007519D01*
X005172Y007519D01*
X005301Y007648D01*
X005392Y007738D01*
X005392Y007683D01*
X005434Y007580D01*
X005513Y007501D01*
X005616Y007459D01*
X005728Y007459D01*
X005830Y007501D01*
X005909Y007580D01*
X005946Y007669D01*
X005946Y007438D01*
X005944Y007436D01*
X005944Y007254D01*
X006073Y007125D01*
X006842Y006356D01*
X006842Y006032D01*
X006803Y006016D01*
X006674Y005887D01*
X006605Y005719D01*
X006605Y005538D01*
X006674Y005370D01*
X006803Y005241D01*
X006971Y005172D01*
X007152Y005172D01*
X007320Y005241D01*
X007449Y005370D01*
X007518Y005538D01*
X007518Y005719D01*
X007449Y005887D01*
X007320Y006016D01*
X007282Y006032D01*
X007282Y006539D01*
X006952Y006868D01*
X007007Y006868D01*
X007110Y006911D01*
X007189Y006990D01*
X007231Y007092D01*
X007231Y007204D01*
X007202Y007276D01*
X008392Y006085D01*
X007698Y006085D01*
X007605Y005992D01*
X007605Y005265D01*
X007698Y005172D01*
X008425Y005172D01*
X008518Y005265D01*
X008518Y005959D01*
X008940Y005537D01*
X009069Y005409D01*
X009191Y005409D01*
X009222Y005334D01*
X009350Y005206D01*
X009518Y005136D01*
X009700Y005136D01*
X009868Y005206D01*
X009996Y005334D01*
X010066Y005502D01*
X010066Y005684D01*
X009996Y005852D01*
X009868Y005980D01*
X009700Y006050D01*
X009518Y006050D01*
X009350Y005980D01*
X009235Y005865D01*
X007428Y007671D01*
X007428Y007696D01*
X007386Y007799D01*
X007307Y007878D01*
X007204Y007920D01*
X007092Y007920D01*
X006990Y007878D01*
X006911Y007799D01*
X006868Y007696D01*
X006868Y007585D01*
X006898Y007513D01*
X006642Y007769D01*
X006642Y008246D01*
X006823Y008246D01*
X006825Y008248D01*
X006834Y008246D01*
X006934Y008246D01*
X007033Y008246D01*
X007042Y008248D01*
X007045Y008246D01*
X007737Y008246D01*
X007737Y007429D01*
X007866Y007300D01*
X008829Y006338D01*
X010108Y006338D01*
X010389Y006057D01*
X010389Y005996D01*
X010350Y005980D01*
X010222Y005852D01*
X010152Y005684D01*
X010152Y005502D01*
X010222Y005334D01*
X010350Y005206D01*
X010518Y005136D01*
X010700Y005136D01*
X010868Y005206D01*
X010996Y005334D01*
X011066Y005502D01*
X011066Y005684D01*
X010996Y005852D01*
X010868Y005980D01*
X010829Y005996D01*
X010829Y006239D01*
X010700Y006368D01*
X010419Y006649D01*
X010290Y006778D01*
X009011Y006778D01*
X008177Y007611D01*
X008177Y008246D01*
X008870Y008246D01*
X008964Y008340D01*
X008964Y009063D01*
X008870Y009157D01*
X007045Y009157D01*
X007042Y009154D01*
X007033Y009157D01*
X006934Y009157D01*
X006934Y008701D01*
X006934Y008246D01*
X006934Y008701D01*
X006934Y008701D01*
X006934Y008701D01*
X006934Y009157D01*
X006834Y009157D01*
X006825Y009154D01*
X006823Y009157D01*
X005253Y009157D01*
X005159Y009063D01*
X005217Y009120D02*
X003368Y009120D01*
X003474Y009002D02*
X003649Y009002D01*
X003579Y008883D02*
X003544Y008883D01*
X003544Y008765D02*
X003579Y008765D01*
X003579Y008646D02*
X003544Y008646D01*
X003544Y008528D02*
X003579Y008528D01*
X003579Y008409D02*
X003544Y008409D01*
X003509Y008291D02*
X003614Y008291D01*
X003975Y008629D02*
X004069Y008723D01*
X004688Y008723D01*
X004959Y008646D02*
X005159Y008646D01*
X005159Y008528D02*
X004888Y008528D01*
X005159Y008409D02*
X004371Y008409D01*
X004336Y008291D02*
X005178Y008291D01*
X005178Y008172D02*
X001206Y008172D01*
X001206Y008054D02*
X005085Y008054D01*
X005398Y008056D02*
X005081Y007739D01*
X004884Y007739D01*
X003506Y006361D01*
X003506Y005684D01*
X003562Y005629D01*
X003984Y005802D02*
X004105Y005802D01*
X004105Y005684D02*
X004018Y005684D01*
X004018Y005565D02*
X004105Y005565D01*
X004105Y005447D02*
X003981Y005447D01*
X003907Y005328D02*
X004105Y005328D01*
X004105Y005265D02*
X004198Y005172D01*
X004925Y005172D01*
X005018Y005265D01*
X005018Y005992D01*
X004925Y006085D01*
X004908Y006085D01*
X004908Y006185D01*
X004925Y006202D01*
X004968Y006305D01*
X004968Y006416D01*
X004925Y006519D01*
X004846Y006598D01*
X004743Y006641D01*
X004632Y006641D01*
X004529Y006598D01*
X004450Y006519D01*
X004408Y006416D01*
X004408Y006305D01*
X004450Y006202D01*
X004468Y006185D01*
X004468Y006085D01*
X004198Y006085D01*
X004105Y005992D01*
X004105Y005265D01*
X004161Y005210D02*
X003744Y005210D01*
X003379Y005210D02*
X002746Y005210D01*
X002737Y005205D02*
X002801Y005238D01*
X002859Y005280D01*
X002910Y005331D01*
X002952Y005389D01*
X002985Y005453D01*
X003007Y005522D01*
X003018Y005590D01*
X002600Y005590D01*
X002600Y005172D01*
X002669Y005183D01*
X002737Y005205D01*
X002600Y005210D02*
X002523Y005210D01*
X002523Y005172D02*
X002523Y005590D01*
X002105Y005590D01*
X002116Y005522D01*
X002138Y005453D01*
X002171Y005389D01*
X002213Y005331D01*
X002264Y005280D01*
X002322Y005238D01*
X002386Y005205D01*
X002455Y005183D01*
X002523Y005172D01*
X002378Y005210D02*
X001206Y005210D01*
X001206Y005328D02*
X002216Y005328D01*
X002142Y005447D02*
X001206Y005447D01*
X001206Y005565D02*
X002109Y005565D01*
X002105Y005667D02*
X002523Y005667D01*
X002523Y005590D01*
X002600Y005590D01*
X002600Y005667D01*
X002523Y005667D01*
X002523Y006085D01*
X002455Y006074D01*
X002386Y006052D01*
X002322Y006019D01*
X002264Y005977D01*
X002213Y005926D01*
X002171Y005868D01*
X002138Y005804D01*
X002116Y005735D01*
X002105Y005667D01*
X002108Y005684D02*
X001206Y005684D01*
X001206Y005802D02*
X002138Y005802D01*
X002209Y005921D02*
X001206Y005921D01*
X001206Y006039D02*
X002361Y006039D01*
X002523Y006039D02*
X002600Y006039D01*
X002600Y006085D02*
X002669Y006074D01*
X002737Y006052D01*
X002801Y006019D01*
X002859Y005977D01*
X002910Y005926D01*
X002952Y005868D01*
X002985Y005804D01*
X003007Y005735D01*
X003018Y005667D01*
X002600Y005667D01*
X002600Y006085D01*
X002600Y005921D02*
X002523Y005921D01*
X002523Y005802D02*
X002600Y005802D01*
X002600Y005684D02*
X002523Y005684D01*
X002523Y005565D02*
X002600Y005565D01*
X002600Y005447D02*
X002523Y005447D01*
X002523Y005328D02*
X002600Y005328D01*
X002907Y005328D02*
X003216Y005328D01*
X003142Y005447D02*
X002982Y005447D01*
X003014Y005565D02*
X003105Y005565D01*
X003105Y005684D02*
X003015Y005684D01*
X002986Y005802D02*
X003139Y005802D01*
X003208Y005921D02*
X002914Y005921D01*
X002762Y006039D02*
X003286Y006039D01*
X003286Y006158D02*
X001206Y006158D01*
X001206Y006276D02*
X003286Y006276D01*
X003286Y006395D02*
X001206Y006395D01*
X001206Y006513D02*
X003348Y006513D01*
X003466Y006632D02*
X001206Y006632D01*
X001206Y006750D02*
X003585Y006750D01*
X003703Y006869D02*
X001206Y006869D01*
X001206Y006987D02*
X003822Y006987D01*
X003940Y007106D02*
X001206Y007106D01*
X001206Y007224D02*
X004059Y007224D01*
X004177Y007343D02*
X001206Y007343D01*
X001206Y007461D02*
X004296Y007461D01*
X004414Y007580D02*
X001206Y007580D01*
X001206Y007698D02*
X004533Y007698D01*
X004651Y007817D02*
X001206Y007817D01*
X001206Y007935D02*
X004770Y007935D01*
X004918Y007461D02*
X005611Y007461D01*
X005733Y007461D02*
X005946Y007461D01*
X005944Y007343D02*
X004799Y007343D01*
X004681Y007224D02*
X005974Y007224D01*
X006092Y007106D02*
X004562Y007106D01*
X004444Y006987D02*
X006211Y006987D01*
X006329Y006869D02*
X004325Y006869D01*
X004207Y006750D02*
X006448Y006750D01*
X006566Y006632D02*
X004766Y006632D01*
X004609Y006632D02*
X004088Y006632D01*
X003970Y006513D02*
X004448Y006513D01*
X004408Y006395D02*
X003851Y006395D01*
X003733Y006276D02*
X004420Y006276D01*
X004468Y006158D02*
X003726Y006158D01*
X003764Y006039D02*
X004152Y006039D01*
X004105Y005921D02*
X003916Y005921D01*
X004562Y005629D02*
X004688Y005754D01*
X004688Y006361D01*
X004956Y006276D02*
X006842Y006276D01*
X006842Y006158D02*
X004908Y006158D01*
X004971Y006039D02*
X005859Y006039D01*
X005803Y006016D02*
X005674Y005887D01*
X005605Y005719D01*
X005605Y005538D01*
X005674Y005370D01*
X005803Y005241D01*
X005971Y005172D01*
X006152Y005172D01*
X006320Y005241D01*
X006449Y005370D01*
X006518Y005538D01*
X006518Y005719D01*
X006449Y005887D01*
X006320Y006016D01*
X006152Y006085D01*
X005971Y006085D01*
X005803Y006016D01*
X005707Y005921D02*
X005018Y005921D01*
X005018Y005802D02*
X005639Y005802D01*
X005605Y005684D02*
X005018Y005684D01*
X005018Y005565D02*
X005605Y005565D01*
X005642Y005447D02*
X005018Y005447D01*
X005018Y005328D02*
X005716Y005328D01*
X005879Y005210D02*
X004963Y005210D01*
X004968Y006395D02*
X006803Y006395D01*
X006685Y006513D02*
X004928Y006513D01*
X005233Y007580D02*
X005435Y007580D01*
X005392Y007698D02*
X005352Y007698D01*
X005654Y007756D02*
X005672Y007739D01*
X005654Y007756D02*
X005654Y008701D01*
X005398Y008701D02*
X005398Y008056D01*
X005909Y007580D02*
X005946Y007580D01*
X006166Y007347D02*
X006164Y007345D01*
X007062Y006447D01*
X007062Y005629D01*
X007484Y005802D02*
X007605Y005802D01*
X007605Y005684D02*
X007518Y005684D01*
X007518Y005565D02*
X007605Y005565D01*
X007605Y005447D02*
X007481Y005447D01*
X007407Y005328D02*
X007605Y005328D01*
X007661Y005210D02*
X007244Y005210D01*
X006879Y005210D02*
X006244Y005210D01*
X006407Y005328D02*
X006716Y005328D01*
X006642Y005447D02*
X006481Y005447D01*
X006518Y005565D02*
X006605Y005565D01*
X006605Y005684D02*
X006518Y005684D01*
X006484Y005802D02*
X006639Y005802D01*
X006707Y005921D02*
X006416Y005921D01*
X006264Y006039D02*
X006842Y006039D01*
X007282Y006039D02*
X007652Y006039D01*
X007605Y005921D02*
X007416Y005921D01*
X007282Y006158D02*
X008320Y006158D01*
X008201Y006276D02*
X007282Y006276D01*
X007282Y006395D02*
X008083Y006395D01*
X007964Y006513D02*
X007282Y006513D01*
X007189Y006632D02*
X007846Y006632D01*
X007727Y006750D02*
X007070Y006750D01*
X007008Y006869D02*
X007609Y006869D01*
X007490Y006987D02*
X007186Y006987D01*
X007231Y007106D02*
X007372Y007106D01*
X007253Y007224D02*
X007223Y007224D01*
X006951Y007148D02*
X006422Y007678D01*
X006422Y008701D01*
X006166Y008701D02*
X006166Y007347D01*
X006713Y007698D02*
X006869Y007698D01*
X006870Y007580D02*
X006831Y007580D01*
X006928Y007817D02*
X006642Y007817D01*
X006642Y007935D02*
X007737Y007935D01*
X007737Y007817D02*
X007368Y007817D01*
X007427Y007698D02*
X007737Y007698D01*
X007737Y007580D02*
X007520Y007580D01*
X007639Y007461D02*
X007737Y007461D01*
X007757Y007343D02*
X007824Y007343D01*
X007876Y007224D02*
X007942Y007224D01*
X007994Y007106D02*
X008061Y007106D01*
X008113Y006987D02*
X008179Y006987D01*
X008231Y006869D02*
X008298Y006869D01*
X008350Y006750D02*
X008416Y006750D01*
X008468Y006632D02*
X008535Y006632D01*
X008587Y006513D02*
X008653Y006513D01*
X008705Y006395D02*
X008772Y006395D01*
X008824Y006276D02*
X010170Y006276D01*
X010288Y006158D02*
X008942Y006158D01*
X009061Y006039D02*
X009492Y006039D01*
X009726Y006039D02*
X010389Y006039D01*
X010290Y005921D02*
X009927Y005921D01*
X010017Y005802D02*
X010201Y005802D01*
X010152Y005684D02*
X010066Y005684D01*
X010066Y005565D02*
X010152Y005565D01*
X010175Y005447D02*
X010043Y005447D01*
X009990Y005328D02*
X010228Y005328D01*
X010346Y005210D02*
X009871Y005210D01*
X009609Y005593D02*
X009573Y005629D01*
X009160Y005629D01*
X007148Y007640D01*
X006642Y008054D02*
X007737Y008054D01*
X007737Y008172D02*
X006642Y008172D01*
X006934Y008291D02*
X006934Y008291D01*
X006934Y008409D02*
X006934Y008409D01*
X006934Y008528D02*
X006934Y008528D01*
X006934Y008646D02*
X006934Y008646D01*
X006934Y008765D02*
X006934Y008765D01*
X006934Y008883D02*
X006934Y008883D01*
X006934Y009002D02*
X006934Y009002D01*
X006934Y009120D02*
X006934Y009120D01*
X006459Y009806D02*
X004113Y009806D01*
X003936Y009629D01*
X004274Y010068D02*
X004521Y010068D01*
X004450Y010139D02*
X004450Y010139D01*
X004403Y010187D02*
X001206Y010187D01*
X001206Y010305D02*
X002773Y010305D01*
X002752Y010424D02*
X001206Y010424D01*
X001206Y010542D02*
X002752Y010542D01*
X002752Y010661D02*
X001206Y010661D01*
X001206Y010779D02*
X002752Y010779D01*
X002752Y010898D02*
X001206Y010898D01*
X001206Y011016D02*
X002837Y011016D01*
X002928Y011135D02*
X001206Y011135D01*
X001206Y011253D02*
X002786Y011253D01*
X002772Y011372D02*
X001206Y011372D01*
X001206Y011490D02*
X002772Y011490D01*
X002772Y011609D02*
X001206Y011609D01*
X001206Y011727D02*
X002772Y011727D01*
X002772Y011846D02*
X001206Y011846D01*
X001206Y011964D02*
X002772Y011964D01*
X002864Y012083D02*
X001206Y012083D01*
X001206Y012201D02*
X004838Y012201D01*
X004772Y012320D02*
X001206Y012320D01*
X001206Y012438D02*
X004772Y012438D01*
X004772Y012557D02*
X001206Y012557D01*
X001206Y012675D02*
X004772Y012675D01*
X004772Y012794D02*
X001206Y012794D01*
X001206Y012912D02*
X004772Y012912D01*
X005151Y012083D02*
X004259Y012083D01*
X004351Y011964D02*
X005206Y011964D01*
X005996Y012675D02*
X007128Y012675D01*
X007128Y012794D02*
X007248Y012794D01*
X007248Y012912D02*
X007128Y012912D01*
X007128Y013031D02*
X007248Y013031D01*
X006812Y013031D02*
X006311Y013031D01*
X006320Y013022D02*
X006290Y013052D01*
X006253Y013073D01*
X006213Y013084D01*
X005996Y013084D01*
X005996Y012689D01*
X006351Y012689D01*
X006351Y012945D01*
X006341Y012986D01*
X006320Y013022D01*
X006351Y012912D02*
X006772Y012912D01*
X006772Y012794D02*
X006351Y012794D01*
X006351Y012557D02*
X006772Y012557D01*
X006772Y012438D02*
X006351Y012438D01*
X006351Y012320D02*
X006772Y012320D01*
X007528Y012197D02*
X007542Y012205D01*
X007562Y012225D01*
X007613Y012173D01*
X007993Y012173D01*
X007993Y012011D01*
X007957Y012011D01*
X007857Y012011D01*
X007849Y012009D01*
X007846Y012011D01*
X007665Y012011D01*
X007665Y012060D01*
X007565Y012161D01*
X007528Y012197D01*
X007534Y012201D02*
X007586Y012201D01*
X007643Y012083D02*
X007993Y012083D01*
X007957Y012011D02*
X007957Y011556D01*
X007957Y012011D01*
X007957Y011964D02*
X007957Y011964D01*
X007957Y011846D02*
X007957Y011846D01*
X007957Y011727D02*
X007957Y011727D01*
X007957Y011609D02*
X007957Y011609D01*
X007957Y011556D02*
X007957Y011556D01*
X007957Y011556D01*
X007957Y011100D01*
X007857Y011100D01*
X007849Y011103D01*
X007846Y011100D01*
X007663Y011100D01*
X007663Y010769D01*
X007681Y010752D01*
X007723Y010649D01*
X007723Y010537D01*
X007681Y010434D01*
X007602Y010356D01*
X007602Y010356D01*
X007588Y010342D01*
X007683Y010381D01*
X007708Y010381D01*
X007993Y010666D01*
X007993Y011100D01*
X007957Y011100D01*
X007957Y011556D01*
X007957Y011490D02*
X007957Y011490D01*
X007957Y011372D02*
X007957Y011372D01*
X007957Y011253D02*
X007957Y011253D01*
X007957Y011135D02*
X007957Y011135D01*
X007993Y011016D02*
X007663Y011016D01*
X007663Y010898D02*
X007993Y010898D01*
X007993Y010779D02*
X007663Y010779D01*
X007719Y010661D02*
X007987Y010661D01*
X007869Y010542D02*
X007723Y010542D01*
X007750Y010424D02*
X007670Y010424D01*
X007443Y010593D02*
X007443Y011554D01*
X008469Y011556D02*
X008469Y010355D01*
X009609Y009215D01*
X010258Y009215D01*
X010707Y008766D01*
X010418Y008409D02*
X008964Y008409D01*
X008964Y008528D02*
X010312Y008528D01*
X010263Y008646D02*
X008964Y008646D01*
X008964Y008765D02*
X010250Y008765D01*
X010261Y008883D02*
X008964Y008883D01*
X008964Y009002D02*
X009511Y009002D01*
X009393Y009120D02*
X008907Y009120D01*
X009389Y009124D02*
X009389Y009124D01*
X009700Y009435D02*
X008689Y010446D01*
X008689Y011100D01*
X008869Y011100D01*
X008907Y011062D01*
X010896Y011062D01*
X012145Y009813D01*
X012145Y009602D01*
X011713Y009170D01*
X011586Y009223D01*
X011404Y009223D01*
X011236Y009154D01*
X011107Y009025D01*
X011101Y009010D01*
X011095Y009025D01*
X010966Y009154D01*
X010798Y009223D01*
X010616Y009223D01*
X010578Y009207D01*
X010350Y009435D01*
X009700Y009435D01*
X009660Y009476D02*
X010336Y009476D01*
X010320Y009492D02*
X010250Y009660D01*
X010250Y009841D01*
X010320Y010009D01*
X010448Y010138D01*
X010616Y010207D01*
X010798Y010207D01*
X010966Y010138D01*
X011095Y010009D01*
X011103Y009989D01*
X011104Y009990D01*
X011146Y010048D01*
X011197Y010099D01*
X011255Y010141D01*
X011319Y010174D01*
X011388Y010196D01*
X011456Y010207D01*
X011456Y009789D01*
X011533Y009789D01*
X011533Y010207D01*
X011602Y010196D01*
X011670Y010174D01*
X011734Y010141D01*
X011792Y010099D01*
X011843Y010048D01*
X011885Y009990D01*
X011918Y009926D01*
X011940Y009858D01*
X011951Y009789D01*
X011533Y009789D01*
X011533Y009712D01*
X011533Y009294D01*
X011602Y009305D01*
X011670Y009327D01*
X011734Y009360D01*
X011792Y009402D01*
X011843Y009453D01*
X011885Y009511D01*
X011918Y009575D01*
X011940Y009644D01*
X011951Y009712D01*
X011533Y009712D01*
X011456Y009712D01*
X011456Y009294D01*
X011388Y009305D01*
X011319Y009327D01*
X011255Y009360D01*
X011197Y009402D01*
X011146Y009453D01*
X011104Y009511D01*
X011103Y009513D01*
X011095Y009492D01*
X010966Y009363D01*
X010798Y009294D01*
X010616Y009294D01*
X010448Y009363D01*
X010320Y009492D01*
X010278Y009594D02*
X009541Y009594D01*
X009423Y009713D02*
X010250Y009713D01*
X010250Y009831D02*
X009304Y009831D01*
X009186Y009950D02*
X010295Y009950D01*
X010379Y010068D02*
X009067Y010068D01*
X008949Y010187D02*
X010566Y010187D01*
X010849Y010187D02*
X011358Y010187D01*
X011456Y010187D02*
X011533Y010187D01*
X011631Y010187D02*
X011771Y010187D01*
X011823Y010068D02*
X011890Y010068D01*
X011906Y009950D02*
X012008Y009950D01*
X011944Y009831D02*
X012127Y009831D01*
X012145Y009713D02*
X011533Y009713D01*
X011533Y009831D02*
X011456Y009831D01*
X011456Y009950D02*
X011533Y009950D01*
X011533Y010068D02*
X011456Y010068D01*
X011653Y010305D02*
X008830Y010305D01*
X008712Y010424D02*
X011534Y010424D01*
X011416Y010542D02*
X008689Y010542D01*
X008689Y010661D02*
X011297Y010661D01*
X011179Y010779D02*
X008689Y010779D01*
X008689Y010898D02*
X011060Y010898D01*
X010942Y011016D02*
X008689Y011016D01*
X008999Y011282D02*
X008725Y011556D01*
X008983Y011609D02*
X012502Y011609D01*
X012502Y011569D02*
X011650Y011569D01*
X011666Y011450D01*
X011697Y011335D01*
X011743Y011225D01*
X011802Y011121D01*
X011875Y011026D01*
X011960Y010942D01*
X012054Y010869D01*
X012158Y010810D01*
X012268Y010764D01*
X012383Y010733D01*
X012502Y010717D01*
X012502Y011568D01*
X012622Y011568D01*
X012622Y011569D02*
X012622Y011689D01*
X012502Y011689D01*
X012502Y011569D01*
X012502Y011490D02*
X012622Y011490D01*
X012622Y011568D02*
X012622Y010717D01*
X012740Y010733D01*
X012855Y010764D01*
X012965Y010810D01*
X013069Y010869D01*
X013164Y010942D01*
X013248Y011026D01*
X013321Y011121D01*
X013381Y011225D01*
X013426Y011335D01*
X013457Y011450D01*
X013473Y011569D01*
X012622Y011569D01*
X012622Y011609D02*
X015059Y011609D01*
X015059Y011727D02*
X013468Y011727D01*
X013473Y011689D02*
X013457Y011807D01*
X013426Y011922D01*
X013381Y012032D01*
X013321Y012136D01*
X013248Y012231D01*
X013164Y012315D01*
X013069Y012388D01*
X012965Y012447D01*
X012855Y012493D01*
X012740Y012524D01*
X012622Y012540D01*
X012622Y011689D01*
X013473Y011689D01*
X013447Y011846D02*
X015059Y011846D01*
X015059Y011964D02*
X013409Y011964D01*
X013352Y012083D02*
X015059Y012083D01*
X015059Y012201D02*
X013271Y012201D01*
X013158Y012320D02*
X015059Y012320D01*
X015059Y012438D02*
X012982Y012438D01*
X012622Y012438D02*
X012502Y012438D01*
X012502Y012320D02*
X012622Y012320D01*
X012622Y012201D02*
X012502Y012201D01*
X012502Y012083D02*
X012622Y012083D01*
X012622Y011964D02*
X012502Y011964D01*
X012502Y011846D02*
X012622Y011846D01*
X012622Y011727D02*
X012502Y011727D01*
X012502Y011372D02*
X012622Y011372D01*
X012622Y011253D02*
X012502Y011253D01*
X012502Y011135D02*
X012622Y011135D01*
X012622Y011016D02*
X012502Y011016D01*
X012502Y010898D02*
X012622Y010898D01*
X012622Y010779D02*
X012502Y010779D01*
X012231Y010779D02*
X011801Y010779D01*
X011919Y010661D02*
X015059Y010661D01*
X015059Y010779D02*
X012892Y010779D01*
X013106Y010898D02*
X015059Y010898D01*
X015059Y011016D02*
X013238Y011016D01*
X013329Y011135D02*
X015059Y011135D01*
X015059Y011253D02*
X013392Y011253D01*
X013436Y011372D02*
X015059Y011372D01*
X015059Y011490D02*
X013462Y011490D01*
X012275Y010305D02*
X015059Y010305D01*
X015059Y010187D02*
X012393Y010187D01*
X012512Y010068D02*
X015059Y010068D01*
X015059Y009950D02*
X012585Y009950D01*
X012585Y009831D02*
X015059Y009831D01*
X015059Y009713D02*
X012585Y009713D01*
X012585Y009594D02*
X015059Y009594D01*
X015059Y009476D02*
X012585Y009476D01*
X012522Y009357D02*
X015059Y009357D01*
X015059Y009239D02*
X012404Y009239D01*
X012285Y009120D02*
X015059Y009120D01*
X015059Y009002D02*
X012167Y009002D01*
X012048Y008883D02*
X015059Y008883D01*
X015059Y008765D02*
X011951Y008765D01*
X011939Y008646D02*
X015059Y008646D01*
X015059Y008528D02*
X011890Y008528D01*
X011783Y008409D02*
X015059Y008409D01*
X015059Y008291D02*
X008914Y008291D01*
X008177Y008172D02*
X015059Y008172D01*
X015059Y008054D02*
X008177Y008054D01*
X008177Y007935D02*
X015059Y007935D01*
X015059Y007817D02*
X008177Y007817D01*
X008177Y007698D02*
X012142Y007698D01*
X012158Y007707D02*
X012054Y007648D01*
X011960Y007575D01*
X011875Y007490D01*
X011802Y007396D01*
X011743Y007292D01*
X011697Y007182D01*
X011666Y007066D01*
X011650Y006948D01*
X012502Y006948D01*
X012502Y007799D01*
X012383Y007784D01*
X012268Y007753D01*
X012158Y007707D01*
X011966Y007580D02*
X008209Y007580D01*
X008328Y007461D02*
X011852Y007461D01*
X011772Y007343D02*
X008446Y007343D01*
X008565Y007224D02*
X011714Y007224D01*
X011676Y007106D02*
X008683Y007106D01*
X008802Y006987D02*
X011656Y006987D01*
X011650Y006828D02*
X011666Y006710D01*
X011697Y006595D01*
X011743Y006484D01*
X011802Y006381D01*
X011875Y006286D01*
X011960Y006202D01*
X012054Y006129D01*
X012158Y006069D01*
X012268Y006024D01*
X012383Y005993D01*
X012502Y005977D01*
X012502Y006828D01*
X012622Y006828D01*
X012622Y006948D01*
X013473Y006948D01*
X013457Y007066D01*
X013426Y007182D01*
X013381Y007292D01*
X013321Y007396D01*
X013248Y007490D01*
X013164Y007575D01*
X013069Y007648D01*
X012965Y007707D01*
X012855Y007753D01*
X012740Y007784D01*
X012622Y007799D01*
X012622Y006948D01*
X012502Y006948D01*
X012502Y006828D01*
X011650Y006828D01*
X011661Y006750D02*
X010318Y006750D01*
X010437Y006632D02*
X011687Y006632D01*
X011731Y006513D02*
X010555Y006513D01*
X010674Y006395D02*
X011795Y006395D01*
X011885Y006276D02*
X010792Y006276D01*
X010829Y006158D02*
X012017Y006158D01*
X012231Y006039D02*
X010829Y006039D01*
X010927Y005921D02*
X015059Y005921D01*
X015059Y006039D02*
X012892Y006039D01*
X012855Y006024D02*
X012965Y006069D01*
X013069Y006129D01*
X013164Y006202D01*
X013248Y006286D01*
X013321Y006381D01*
X013381Y006484D01*
X013426Y006595D01*
X013457Y006710D01*
X013473Y006828D01*
X012622Y006828D01*
X012622Y005977D01*
X012740Y005993D01*
X012855Y006024D01*
X012622Y006039D02*
X012502Y006039D01*
X012502Y006158D02*
X012622Y006158D01*
X012622Y006276D02*
X012502Y006276D01*
X012502Y006395D02*
X012622Y006395D01*
X012622Y006513D02*
X012502Y006513D01*
X012502Y006632D02*
X012622Y006632D01*
X012622Y006750D02*
X012502Y006750D01*
X012502Y006869D02*
X008920Y006869D01*
X008920Y006558D02*
X007957Y007520D01*
X007957Y008701D01*
X007979Y009950D02*
X008563Y009950D01*
X008445Y010068D02*
X008019Y010068D01*
X008135Y010187D02*
X008326Y010187D01*
X008378Y010135D02*
X008378Y010135D01*
X008999Y011282D02*
X010987Y011282D01*
X012365Y009904D01*
X012365Y009510D01*
X011621Y008766D01*
X011495Y008766D01*
X011202Y009120D02*
X011000Y009120D01*
X010951Y009357D02*
X011261Y009357D01*
X011130Y009476D02*
X011078Y009476D01*
X011456Y009476D02*
X011533Y009476D01*
X011533Y009594D02*
X011456Y009594D01*
X011456Y009357D02*
X011533Y009357D01*
X011729Y009357D02*
X011900Y009357D01*
X011860Y009476D02*
X012019Y009476D01*
X011924Y009594D02*
X012137Y009594D01*
X011782Y009239D02*
X010546Y009239D01*
X010464Y009357D02*
X010428Y009357D01*
X011036Y010068D02*
X011166Y010068D01*
X011682Y010898D02*
X012017Y010898D01*
X011885Y011016D02*
X011564Y011016D01*
X011445Y011135D02*
X011795Y011135D01*
X011731Y011253D02*
X011327Y011253D01*
X011208Y011372D02*
X011687Y011372D01*
X011661Y011490D02*
X011090Y011490D01*
X011656Y011727D02*
X008964Y011727D01*
X008964Y011846D02*
X011676Y011846D01*
X011714Y011964D02*
X008917Y011964D01*
X005996Y012794D02*
X005876Y012794D01*
X005876Y012912D02*
X005996Y012912D01*
X005996Y013031D02*
X005876Y013031D01*
X003612Y012083D02*
X003511Y012083D01*
X003188Y011629D02*
X003148Y011589D01*
X003148Y010629D01*
X003544Y010542D02*
X003579Y010542D01*
X003579Y010424D02*
X003544Y010424D01*
X003523Y010305D02*
X003600Y010305D01*
X003598Y010068D02*
X003525Y010068D01*
X003188Y009629D02*
X003148Y009589D01*
X003148Y008629D01*
X002787Y008291D02*
X001206Y008291D01*
X001206Y008409D02*
X002752Y008409D01*
X002752Y008528D02*
X001206Y008528D01*
X001206Y008646D02*
X002752Y008646D01*
X002752Y008765D02*
X001206Y008765D01*
X001206Y008883D02*
X002752Y008883D01*
X002822Y009002D02*
X001206Y009002D01*
X001206Y009120D02*
X002928Y009120D01*
X002800Y009239D02*
X001206Y009239D01*
X001206Y009357D02*
X002772Y009357D01*
X002772Y009476D02*
X001206Y009476D01*
X001206Y009594D02*
X002772Y009594D01*
X002772Y009713D02*
X001206Y009713D01*
X001206Y009831D02*
X002772Y009831D01*
X002772Y009950D02*
X001206Y009950D01*
X001206Y010068D02*
X002850Y010068D01*
X004924Y008883D02*
X005159Y008883D01*
X005159Y008765D02*
X004968Y008765D01*
X008518Y005921D02*
X008557Y005921D01*
X008518Y005802D02*
X008675Y005802D01*
X008794Y005684D02*
X008518Y005684D01*
X008518Y005565D02*
X008912Y005565D01*
X009031Y005447D02*
X008518Y005447D01*
X008518Y005328D02*
X009228Y005328D01*
X009346Y005210D02*
X008463Y005210D01*
X009179Y005921D02*
X009290Y005921D01*
X008920Y006558D02*
X010199Y006558D01*
X010609Y006148D01*
X010609Y005593D01*
X011043Y005447D02*
X015059Y005447D01*
X015059Y005565D02*
X011066Y005565D01*
X011066Y005684D02*
X015059Y005684D01*
X015059Y005802D02*
X011017Y005802D01*
X010990Y005328D02*
X015059Y005328D01*
X015059Y005210D02*
X010871Y005210D01*
X012622Y006869D02*
X015059Y006869D01*
X015059Y006987D02*
X013468Y006987D01*
X013447Y007106D02*
X015059Y007106D01*
X015059Y007224D02*
X013409Y007224D01*
X013352Y007343D02*
X015059Y007343D01*
X015059Y007461D02*
X013271Y007461D01*
X013158Y007580D02*
X015059Y007580D01*
X015059Y007698D02*
X012982Y007698D01*
X012622Y007698D02*
X012502Y007698D01*
X012502Y007580D02*
X012622Y007580D01*
X012622Y007461D02*
X012502Y007461D01*
X012502Y007343D02*
X012622Y007343D01*
X012622Y007224D02*
X012502Y007224D01*
X012502Y007106D02*
X012622Y007106D01*
X012622Y006987D02*
X012502Y006987D01*
X013238Y006276D02*
X015059Y006276D01*
X015059Y006158D02*
X013106Y006158D01*
X013329Y006395D02*
X015059Y006395D01*
X015059Y006513D02*
X013392Y006513D01*
X013436Y006632D02*
X015059Y006632D01*
X015059Y006750D02*
X013462Y006750D01*
X015059Y005091D02*
X001206Y005091D01*
X001206Y004973D02*
X015059Y004973D01*
X015059Y004854D02*
X001206Y004854D01*
X001206Y004736D02*
X015059Y004736D01*
X015059Y004617D02*
X001206Y004617D01*
X001206Y004499D02*
X015059Y004499D01*
X015059Y004380D02*
X001206Y004380D01*
X001206Y004262D02*
X015059Y004262D01*
X015059Y004143D02*
X001206Y004143D01*
X001206Y004025D02*
X015059Y004025D01*
X015059Y003906D02*
X001206Y003906D01*
X001206Y003788D02*
X015059Y003788D01*
X015059Y003669D02*
X001206Y003669D01*
X001206Y003551D02*
X015059Y003551D01*
X015059Y003432D02*
X001206Y003432D01*
X001206Y003314D02*
X015059Y003314D01*
X015059Y003195D02*
X001206Y003195D01*
X001206Y003174D02*
X001206Y014370D01*
X015059Y014370D01*
X015059Y003174D01*
X001206Y003174D01*
X010996Y008409D02*
X011206Y008409D01*
X012156Y010424D02*
X015059Y010424D01*
X015059Y010542D02*
X012038Y010542D01*
X015059Y013268D02*
X001206Y013268D01*
X001206Y013386D02*
X015059Y013386D01*
X015059Y013505D02*
X001206Y013505D01*
X001206Y013623D02*
X015059Y013623D01*
X015059Y013742D02*
X001206Y013742D01*
X001206Y013860D02*
X015059Y013860D01*
X015059Y013979D02*
X001206Y013979D01*
X001206Y014097D02*
X015059Y014097D01*
X015059Y014216D02*
X001206Y014216D01*
X001206Y014334D02*
X015059Y014334D01*
D18*
X014333Y012758D03*
X014333Y010396D03*
X012758Y010396D03*
X010790Y010790D03*
X009609Y010790D03*
X008428Y009609D03*
X007739Y010101D03*
X007443Y010593D03*
X006459Y010888D03*
X006459Y009806D03*
X007247Y009609D03*
X005672Y007739D03*
X004884Y008034D03*
X004688Y008723D03*
X004688Y010298D03*
X004884Y011577D03*
X004097Y012758D03*
X002129Y012758D03*
X002129Y010790D03*
X001735Y008821D03*
X002916Y007640D03*
X001735Y006853D03*
X001735Y004491D03*
X003310Y004491D03*
X005278Y004491D03*
X004688Y006361D03*
X006951Y007148D03*
X007148Y007640D03*
X008821Y007640D03*
X010790Y007640D03*
X012365Y008034D03*
X014333Y008034D03*
X014333Y005278D03*
X011971Y004491D03*
X007640Y004491D03*
X009215Y012758D03*
X011577Y012758D03*
D19*
X007443Y010593D02*
X007148Y010298D01*
X004688Y010298D01*
X004357Y010629D01*
X003975Y010629D01*
M02*
