G75*
G70*
%OFA0B0*%
%FSLAX24Y24*%
%IPPOS*%
%LPD*%
%AMOC8*
5,1,8,0,0,1.08239X$1,22.5*
%
%ADD10C,0.0000*%
%ADD11C,0.0080*%
%ADD12C,0.0050*%
%ADD13C,0.0030*%
%ADD14C,0.0020*%
%ADD15R,0.0079X0.0079*%
%ADD16C,0.0010*%
D10*
X001046Y003014D02*
X001046Y014530D01*
X015219Y014530D01*
X015219Y003014D01*
X001046Y003014D01*
D11*
X005054Y009105D02*
X005054Y009855D01*
X005053Y009855D02*
X005085Y009859D01*
X005116Y009867D01*
X005146Y009877D01*
X005174Y009892D01*
X005201Y009909D01*
X005225Y009930D01*
X005247Y009953D01*
X005266Y009979D01*
X005282Y010006D01*
X005294Y010035D01*
X005304Y010066D01*
X005309Y010097D01*
X005311Y010129D01*
X005309Y010161D01*
X005304Y010192D01*
X005294Y010223D01*
X005282Y010252D01*
X005266Y010279D01*
X005247Y010305D01*
X005225Y010328D01*
X005201Y010349D01*
X005174Y010366D01*
X005146Y010381D01*
X005116Y010391D01*
X005085Y010399D01*
X005053Y010403D01*
X005054Y010402D02*
X005054Y011152D01*
X009069Y011152D01*
X009069Y009105D01*
X005054Y009105D01*
D12*
X005062Y006129D02*
X002062Y006129D01*
X002062Y005129D01*
X005062Y005129D01*
X005062Y006129D01*
X005562Y006129D02*
X005562Y005129D01*
X008562Y005129D01*
X008562Y006129D01*
X005562Y006129D01*
X009109Y006093D02*
X009109Y005093D01*
X011109Y005093D01*
X011109Y006093D01*
X009109Y006093D01*
X010258Y006879D02*
X011562Y006879D01*
X010258Y006879D02*
X010258Y011629D01*
X011562Y011629D01*
X013546Y011629D02*
X015081Y011629D01*
X015081Y006865D02*
X013546Y006865D01*
D13*
X010764Y004801D02*
X010764Y004704D01*
X010716Y004656D01*
X010619Y004704D02*
X010619Y004801D01*
X010667Y004849D01*
X010716Y004849D01*
X010764Y004801D01*
X010619Y004704D02*
X010571Y004656D01*
X010522Y004656D01*
X010474Y004704D01*
X010474Y004801D01*
X010522Y004849D01*
X010474Y004555D02*
X010474Y004361D01*
X010474Y004458D02*
X010764Y004458D01*
X010716Y004260D02*
X010764Y004212D01*
X010764Y004115D01*
X010716Y004067D01*
X010522Y004067D01*
X010474Y004115D01*
X010474Y004212D01*
X010522Y004260D01*
X009756Y004212D02*
X009756Y004067D01*
X009466Y004067D01*
X009466Y004212D01*
X009514Y004260D01*
X009708Y004260D01*
X009756Y004212D01*
X009756Y004458D02*
X009466Y004458D01*
X009466Y004361D02*
X009466Y004555D01*
X009466Y004656D02*
X009466Y004801D01*
X009514Y004849D01*
X009611Y004849D01*
X009660Y004801D01*
X009660Y004656D01*
X009756Y004656D02*
X009466Y004656D01*
X009660Y004753D02*
X009756Y004849D01*
X009855Y010147D02*
X010097Y010147D01*
X010145Y010196D01*
X010145Y010293D01*
X010097Y010341D01*
X009855Y010341D01*
X009903Y010442D02*
X009952Y010442D01*
X010000Y010490D01*
X010000Y010587D01*
X010048Y010636D01*
X010097Y010636D01*
X010145Y010587D01*
X010145Y010490D01*
X010097Y010442D01*
X009903Y010442D02*
X009855Y010490D01*
X009855Y010587D01*
X009903Y010636D01*
X009855Y010737D02*
X009855Y010882D01*
X009903Y010930D01*
X009952Y010930D01*
X010000Y010882D01*
X010000Y010737D01*
X010000Y010882D02*
X010048Y010930D01*
X010097Y010930D01*
X010145Y010882D01*
X010145Y010737D01*
X009855Y010737D01*
X010000Y011031D02*
X010000Y011225D01*
X010000Y011326D02*
X010000Y011471D01*
X010048Y011520D01*
X010097Y011520D01*
X010145Y011471D01*
X010145Y011326D01*
X009855Y011326D01*
X009855Y011471D01*
X009903Y011520D01*
X009952Y011520D01*
X010000Y011471D01*
D14*
X008104Y006566D02*
X008104Y006285D01*
X008291Y006285D01*
X008015Y006285D02*
X007828Y006285D01*
X007828Y006566D01*
X008015Y006566D01*
X007922Y006425D02*
X007828Y006425D01*
X007739Y006379D02*
X007645Y006285D01*
X007552Y006379D01*
X007552Y006566D01*
X007463Y006566D02*
X007276Y006566D01*
X007276Y006285D01*
X007463Y006285D01*
X007369Y006425D02*
X007276Y006425D01*
X007186Y006285D02*
X006999Y006285D01*
X006999Y006566D01*
X006910Y006239D02*
X006723Y006239D01*
X006634Y006379D02*
X006634Y006566D01*
X006447Y006566D02*
X006447Y006379D01*
X006540Y006285D01*
X006634Y006379D01*
X006358Y006239D02*
X006171Y006239D01*
X006081Y006332D02*
X006081Y006519D01*
X006035Y006566D01*
X005941Y006566D01*
X005895Y006519D01*
X005895Y006332D01*
X005941Y006285D01*
X006035Y006285D01*
X006081Y006332D01*
X005804Y006285D02*
X005710Y006285D01*
X005757Y006285D02*
X005757Y006566D01*
X005710Y006566D02*
X005804Y006566D01*
X004791Y006566D02*
X004604Y006566D01*
X004515Y006566D02*
X004515Y006332D01*
X004468Y006285D01*
X004375Y006285D01*
X004328Y006332D01*
X004328Y006566D01*
X004239Y006519D02*
X004192Y006566D01*
X004099Y006566D01*
X004052Y006519D01*
X004052Y006332D01*
X004099Y006285D01*
X004192Y006285D01*
X004239Y006332D01*
X004239Y006519D01*
X003963Y006239D02*
X003776Y006239D01*
X003686Y006332D02*
X003686Y006519D01*
X003640Y006566D01*
X003499Y006566D01*
X003499Y006285D01*
X003640Y006285D01*
X003686Y006332D01*
X003410Y006285D02*
X003223Y006566D01*
X003134Y006566D02*
X002947Y006566D01*
X002858Y006566D02*
X002671Y006285D01*
X002581Y006332D02*
X002581Y006519D01*
X002535Y006566D01*
X002395Y006566D01*
X002395Y006285D01*
X002535Y006285D01*
X002581Y006332D01*
X002305Y006285D02*
X002118Y006566D01*
X002029Y006519D02*
X002029Y006425D01*
X001982Y006379D01*
X001842Y006379D01*
X001935Y006379D02*
X002029Y006285D01*
X002118Y006285D02*
X002305Y006566D01*
X002029Y006519D02*
X001982Y006566D01*
X001842Y006566D01*
X001842Y006285D01*
X003040Y006285D02*
X003040Y006566D01*
X003223Y006285D02*
X003410Y006566D01*
X004698Y006566D02*
X004698Y006285D01*
X004740Y004858D02*
X004553Y004858D01*
X004506Y004811D01*
X004506Y004671D01*
X004787Y004671D01*
X004787Y004811D01*
X004740Y004858D01*
X004787Y004582D02*
X004506Y004395D01*
X004553Y004306D02*
X004646Y004306D01*
X004693Y004259D01*
X004693Y004119D01*
X004693Y004212D02*
X004787Y004306D01*
X004787Y004395D02*
X004506Y004582D01*
X004553Y004306D02*
X004506Y004259D01*
X004506Y004119D01*
X004787Y004119D01*
X003787Y004212D02*
X003506Y004212D01*
X003506Y004119D02*
X003506Y004306D01*
X003506Y004395D02*
X003787Y004582D01*
X003787Y004671D02*
X003787Y004811D01*
X003740Y004858D01*
X003553Y004858D01*
X003506Y004811D01*
X003506Y004671D01*
X003787Y004671D01*
X003787Y004395D02*
X003506Y004582D01*
X002787Y004582D02*
X002506Y004582D01*
X002506Y004671D02*
X002506Y004811D01*
X002553Y004858D01*
X002740Y004858D01*
X002787Y004811D01*
X002787Y004671D01*
X002506Y004671D01*
X002506Y004395D02*
X002787Y004582D01*
X002787Y004395D02*
X002506Y004395D01*
X002553Y004306D02*
X002506Y004259D01*
X002506Y004166D01*
X002553Y004119D01*
X002740Y004119D01*
X002787Y004166D01*
X002787Y004259D01*
X002740Y004306D01*
X002646Y004306D01*
X002646Y004212D01*
X006006Y004166D02*
X006006Y004259D01*
X006053Y004306D01*
X006100Y004306D01*
X006146Y004259D01*
X006193Y004306D01*
X006240Y004306D01*
X006287Y004259D01*
X006287Y004166D01*
X006240Y004119D01*
X006146Y004029D02*
X006146Y003843D01*
X006053Y003936D02*
X006240Y003936D01*
X006053Y004119D02*
X006006Y004166D01*
X006146Y004212D02*
X006146Y004259D01*
X006193Y004395D02*
X006006Y004395D01*
X006006Y004582D02*
X006193Y004582D01*
X006287Y004488D01*
X006193Y004395D01*
X006240Y004671D02*
X006287Y004718D01*
X006287Y004811D01*
X006240Y004858D01*
X006193Y004858D01*
X006146Y004811D01*
X006146Y004765D01*
X006146Y004811D02*
X006100Y004858D01*
X006053Y004858D01*
X006006Y004811D01*
X006006Y004718D01*
X006053Y004671D01*
X007006Y004671D02*
X007006Y004858D01*
X007006Y004765D02*
X007287Y004765D01*
X007240Y004582D02*
X007287Y004535D01*
X007287Y004442D01*
X007240Y004395D01*
X007053Y004395D01*
X007006Y004442D01*
X007006Y004535D01*
X007053Y004582D01*
X007006Y004306D02*
X007006Y004119D01*
X007287Y004119D01*
X007287Y004306D01*
X007146Y004212D02*
X007146Y004119D01*
X007287Y004029D02*
X007287Y003843D01*
X007006Y003843D01*
X007006Y003753D02*
X007006Y003566D01*
X007287Y003566D01*
X007287Y003753D01*
X007146Y003660D02*
X007146Y003566D01*
X007193Y003477D02*
X007146Y003430D01*
X007146Y003337D01*
X007100Y003290D01*
X007053Y003290D01*
X007006Y003337D01*
X007006Y003430D01*
X007053Y003477D01*
X007193Y003477D02*
X007240Y003477D01*
X007287Y003430D01*
X007287Y003337D01*
X007240Y003290D01*
X008146Y004119D02*
X008146Y004306D01*
X008146Y004395D02*
X008100Y004488D01*
X008100Y004535D01*
X008146Y004582D01*
X008240Y004582D01*
X008287Y004535D01*
X008287Y004442D01*
X008240Y004395D01*
X008146Y004395D02*
X008006Y004395D01*
X008006Y004582D01*
X008006Y004671D02*
X008193Y004671D01*
X008287Y004765D01*
X008193Y004858D01*
X008006Y004858D01*
X008053Y004212D02*
X008240Y004212D01*
X007739Y006379D02*
X007739Y006566D01*
D15*
X003522Y008629D03*
X003522Y010629D03*
D16*
X008864Y005948D02*
X008914Y005998D01*
X008914Y005848D01*
X008864Y005848D02*
X008964Y005848D01*
M02*
